<?xml version="1.0" standalone="no"?><!DOCTYPE svg PUBLIC "-//W3C//DTD SVG 1.1//EN" "http://www.w3.org/Graphics/SVG/1.1/DTD/svg11.dtd"><svg t="1695086908043" class="icon" viewBox="0 0 1024 1024" version="1.1" xmlns="http://www.w3.org/2000/svg" p-id="2113" xmlns:xlink="http://www.w3.org/1999/xlink" width="200" height="200"><path d="M981.523763 550.07232c-3.87072-51.32288-13.78304-102.35904-28.73344-147.6608-22.89664-69.4272-57.07776-135.72096-96.256-186.7776-10.71104-13.9264-31.39584-17.1008-46.2848-7.08608-14.86848 9.9328-18.26816 29.2864-7.61856 43.2128 35.10272 45.71136 65.90464 105.6768 86.79424 168.93952 13.45536 40.79616 22.40512 86.99904 25.9072 133.69344 12.75904 170.12736-62.11584 309.08416-206.90944 387.91168-23.71584-182.272-174.96064-241.7664-181.92384-244.4288a35.2256 35.2256 0 0 0-28.59008 1.6384c-131.6864 68.34176-170.02496 182.9888-181.1456 247.15264-130.29376-64.06144-209.5104-184.66816-209.5104-323.70688 0-93.63456 49.90976-180.40832 152.53504-265.17504 13.63968-11.28448 27.5456-22.38464 41.45152-33.4848 75.3664-60.1088 153.35424-122.22464 192.65536-216.80128 4.28032-10.19904 7.9872-19.456 11.14112-27.79136 69.4272 45.64992 219.68896 168.87808 268.45184 404.60288 3.4816 16.83456 20.95104 27.79136 38.83008 24.55552 18.00192-3.23584 29.77792-19.47648 26.27584-36.29056C771.214643 146.78016 528.977203 18.1248 501.452083 4.42368c-0.9216-0.512-1.90464-0.9216-2.88768-1.39264-16.42496-7.31136-36.0448-0.94208-44.09344 14.29504-2.2528 4.3008-3.33824 8.88832-3.39968 13.45536-3.11296 11.44832-16.03584 46.81728-18.98496 54.25152-33.25952 80.03584-101.60128 134.47168-173.93664 192.12288-14.19264 11.32544-28.3648 22.67136-42.33216 34.18112C99.777843 407.2448 40.959283 512.08192 40.959283 622.96064c0 178.93376 111.98464 331.81696 292.2496 398.86848 3.91168 1.47456 8.06912 2.17088 12.1856 2.17088a34.816 34.816 0 0 0 18.78016-5.4272c9.13408-5.79584 14.5408-15.52384 14.45888-25.8048-0.04096-6.30784 0.49152-150.44608 136.64256-230.89152 35.96288 19.31264 129.9456 83.6608 129.9456 229.74464 0 10.5472 5.7344 20.39808 15.17568 26.07104a35.0208 35.0208 0 0 0 31.66208 2.17088c197.03808-83.47648 305.2544-259.13344 289.46432-469.8112M473.087283 62.34112" p-id="2114"></path></svg>
